<?xml version="1.0" encoding="utf-8"?>
<!-- Generator: Adobe Illustrator 23.0.1, SVG Export Plug-In . SVG Version: 6.00 Build 0)  -->
<svg version="1.1" id="Layer_1" xmlns="http://www.w3.org/2000/svg" xmlns:xlink="http://www.w3.org/1999/xlink" x="0px" y="0px"
	 viewBox="0 0 2400 1078" style="enable-background:new 0 0 2400 1078;" xml:space="preserve">
<style type="text/css">
	.st0{fill:url(#SVGID_1_1);}
	.st1{fill:url(#SVGID_2_);}
	.st2{fill:url(#SVGID_3_);}
	.st3{fill:url(#SVGID_4_);}
	.st4{fill:url(#SVGID_5_);}
</style>
<linearGradient id="SVGID_1_1" gradientUnits="userSpaceOnUse" x1="103.2063" y1="524.015" x2="369.2267" y2="651.9113" gradientTransform="matrix(1 0 0 -1 0 1080)">
	<stop  offset="0" style="stop-color:#FFF635"/>
	<stop  offset="0.3452" style="stop-color:#B3FF00"/>
	<stop  offset="0.6748" style="stop-color:#FF5CFF"/>
	<stop  offset="1" style="stop-color:#00B9F4"/>
</linearGradient>
<path class="st01" d="M277,400.1c-48.3-38.2-73.1-55.6-109.1-55.1c-49.4,0.7-105.6,47.1-107.9,98.7c-1.4,32.8,19.4,59.3,33.2,76.9
	c8.3,10.6,30.3,37.9,66.3,48.7c34.8,10.4,42.5-6.7,72.3,2.7c44.8,14.2,44.8,59,79.1,64.1c30.7,4.5,80.6-30,89-73
	C411.1,506.3,345.9,454.6,277,400.1z"/>
<linearGradient id="SVGID_2_" gradientUnits="userSpaceOnUse" x1="475.7087" y1="124.0456" x2="758.7034" y2="260.1026" gradientTransform="matrix(1 0 0 -1 0 1080)">
	<stop  offset="0" style="stop-color:#FFF635"/>
	<stop  offset="0.3452" style="stop-color:#B3FF00"/>
	<stop  offset="0.6748" style="stop-color:#FF5CFF"/>
	<stop  offset="1" style="stop-color:#00B9F4"/>
</linearGradient>
<path class="st1" d="M727.2,897c6.8-18.7,20.8-63.4,3.5-93.6c-1.4-2.5-3.1-4.9-5.2-7.1c-27.2-28-76.9-36.3-112.2-22
	c-21.4,8.7-22.9,19.3-60.3,63.8c-61.2,72.6-86.4,78.7-83.1,101.4c5,35.6,71.8,56.6,111.4,59.1c16.5,1,65.2,4.1,106.5-36.6
	C710.7,939.3,721.9,912.6,727.2,897z"/>
<linearGradient id="SVGID_3_" gradientUnits="userSpaceOnUse" x1="849.5269" y1="546.7238" x2="1123.7493" y2="678.5634" gradientTransform="matrix(1 0 0 -1 0 1080)">
	<stop  offset="0" style="stop-color:#FFF635"/>
	<stop  offset="0.3452" style="stop-color:#B3FF00"/>
	<stop  offset="0.6748" style="stop-color:#FF5CFF"/>
	<stop  offset="1" style="stop-color:#00B9F4"/>
</linearGradient>
<path class="st2" d="M1112.4,550.3c27.5-38.9,27.5-99.3,4.6-113.3c-20.5-12.5-43.9,21.5-86,13c-30.3-6.1-32.6-26.6-68.9-48.3
	C912.8,372.3,844.3,366.6,830,389c-9.1,14.3,11.3,28.1,21,81c8.9,48.3-4.3,57.7,7,80c26.4,51.9,122.4,49.4,134,49
	C1020.3,598,1080.2,595.8,1112.4,550.3z"/>
<linearGradient id="SVGID_4_" gradientUnits="userSpaceOnUse" x1="1275.8563" y1="196.5904" x2="1559.3928" y2="332.908" gradientTransform="matrix(1 0 0 -1 0 1080)">
	<stop  offset="0" style="stop-color:#FFF635"/>
	<stop  offset="0.3452" style="stop-color:#B3FF00"/>
	<stop  offset="0.6748" style="stop-color:#FF5CFF"/>
	<stop  offset="1" style="stop-color:#00B9F4"/>
</linearGradient>
<path class="st3" d="M1529.2,827c6.8-18.7,20.8-63.4,3.5-93.6c-1.4-2.5-3.1-4.9-5.2-7.1c-27.3-28.2-76.6-35.3-112.2-22
	c-15.6,5.8-31.1,22.9-61.3,56.8c-78,87.4-84,94.9-82.2,108.4c5.9,42,79.2,78,111.4,59.1c30.2-17.8,16.9-79.3,38.7-84.5
	c21.2-5,40.6,51.7,67.8,47.9C1507.2,889.4,1515.8,863.6,1529.2,827z"/>
<linearGradient id="SVGID_5_" gradientUnits="userSpaceOnUse" x1="1635.0284" y1="760.6997" x2="1859.8506" y2="868.7888" gradientTransform="matrix(1 0 0 -1 0 1080)">
	<stop  offset="0" style="stop-color:#FFF635"/>
	<stop  offset="0.3452" style="stop-color:#B3FF00"/>
	<stop  offset="0.6748" style="stop-color:#FF5CFF"/>
	<stop  offset="1" style="stop-color:#00B9F4"/>
</linearGradient>
<path class="st4" d="M1890,348c18.8-25.3-26.5-93.3-55.3-136.6c-2.1-3.1-3.2-5-5.2-7.1c-10.7-11.1-34.4-18.5-112.2-22
	c-128.2-5.8-139.3,9.5-139.9,15c-2.2,19.6,139.9,25.2,155.6,87.8c12.5,49.8-63.1,102.7-47.7,121.5c10,12.3,50.3-0.2,74.7-13.5
	c17.2-9.4,17.3-14.2,31.8-23.1C1838.1,341.7,1875.6,367.5,1890,348z"/>
</svg>
